<mxfile host="app.diagrams.net" modified="2023-08-24T11:31:04.048Z" agent="Mozilla/5.0 (Windows NT 10.0; Win64; x64) AppleWebKit/537.36 (KHTML, like Gecko) Chrome/114.0.0.0 Safari/537.36" etag="-sjSgzNCui7RXmzENtPL" version="21.6.8" type="github">
  <diagram id="6a731a19-8d31-9384-78a2-239565b7b9f0" name="Page-1">
    <mxGraphModel dx="1216" dy="-312" grid="1" gridSize="10" guides="1" tooltips="1" connect="1" arrows="1" fold="1" page="1" pageScale="1" pageWidth="1169" pageHeight="827" background="none" math="0" shadow="0">
      <root>
        <mxCell id="0" />
        <mxCell id="1" parent="0" />
        <mxCell id="yRl5BT_FNGJXd90gxWGe-165" value="" style="rounded=1;whiteSpace=wrap;html=1;" vertex="1" parent="1">
          <mxGeometry x="2150" y="1120" width="1160" height="620" as="geometry" />
        </mxCell>
        <mxCell id="56" value="Project&#xa;" style="strokeColor=#BAC8D3;fillColor=#23445D;fontSize=24;strokeWidth=2;fontFamily=Helvetica;html=1;fontColor=#FFFFFF;fontStyle=0;spacingBottom=8;spacingRight=0;spacingLeft=83;" parent="1" vertex="1">
          <mxGeometry x="154" y="850.5" width="2030" height="80" as="geometry" />
        </mxCell>
        <mxCell id="57" value="Lane 1" style="strokeColor=#BAC8D3;fillColor=#23445D;fontSize=24;strokeWidth=2;horizontal=0;fontFamily=Helvetica;html=1;fontColor=#FFFFFF;fontStyle=0" parent="1" vertex="1">
          <mxGeometry x="154" y="930.5" width="50" height="300" as="geometry" />
        </mxCell>
        <mxCell id="58" value="Lane 1.1" style="strokeColor=#BAC8D3;fillColor=#5d7f99;fontSize=19;strokeWidth=2;horizontal=0;fontFamily=Helvetica;html=1;labelBackgroundColor=none;fontColor=#FFFFFF;" parent="1" vertex="1">
          <mxGeometry x="204" y="930.5" width="40" height="100" as="geometry" />
        </mxCell>
        <mxCell id="59" value="v 1.0" style="strokeColor=#BAC8D3;fillColor=#5d7f99;fontSize=19;strokeWidth=2;fontFamily=Helvetica;html=1;labelBackgroundColor=none;fontColor=#FFFFFF;" parent="1" vertex="1">
          <mxGeometry x="154" y="850.5" width="90" height="80" as="geometry" />
        </mxCell>
        <mxCell id="60" value="Lane 1.2" style="strokeColor=#BAC8D3;fillColor=#5d7f99;fontSize=19;strokeWidth=2;horizontal=0;fontFamily=Helvetica;html=1;labelBackgroundColor=none;fontColor=#FFFFFF;" parent="1" vertex="1">
          <mxGeometry x="204" y="1030.5" width="40" height="100" as="geometry" />
        </mxCell>
        <mxCell id="61" value="Lane 1.3" style="strokeColor=#BAC8D3;fillColor=#5d7f99;fontSize=19;strokeWidth=2;horizontal=0;fontFamily=Helvetica;html=1;labelBackgroundColor=none;fontColor=#FFFFFF;" parent="1" vertex="1">
          <mxGeometry x="204" y="1130.5" width="40" height="100" as="geometry" />
        </mxCell>
        <mxCell id="62" value="Lane 2.2" style="strokeColor=#BAC8D3;fillColor=#5d7f99;fontSize=19;strokeWidth=2;horizontal=0;fontFamily=Helvetica;html=1;labelBackgroundColor=none;fontColor=#FFFFFF;" parent="1" vertex="1">
          <mxGeometry x="204" y="1330.5" width="40" height="100" as="geometry" />
        </mxCell>
        <mxCell id="63" value="Lane 2.1" style="strokeColor=#BAC8D3;fillColor=#5d7f99;fontSize=19;strokeWidth=2;horizontal=0;fontFamily=Helvetica;html=1;labelBackgroundColor=none;fontColor=#FFFFFF;" parent="1" vertex="1">
          <mxGeometry x="204" y="1230.5" width="40" height="100" as="geometry" />
        </mxCell>
        <mxCell id="64" value="Lane 2" style="strokeColor=#BAC8D3;fillColor=#23445D;fontSize=24;strokeWidth=2;horizontal=0;fontFamily=Helvetica;html=1;fontColor=#FFFFFF;fontStyle=0" parent="1" vertex="1">
          <mxGeometry x="154" y="1230.5" width="50" height="200" as="geometry" />
        </mxCell>
        <mxCell id="65" value="Lane 3.2" style="strokeColor=#BAC8D3;fillColor=#5d7f99;fontSize=19;strokeWidth=2;horizontal=0;fontFamily=Helvetica;html=1;labelBackgroundColor=none;fontColor=#FFFFFF;" parent="1" vertex="1">
          <mxGeometry x="204" y="1530.5" width="40" height="100" as="geometry" />
        </mxCell>
        <mxCell id="66" value="Lane 3.1" style="strokeColor=#BAC8D3;fillColor=#5d7f99;fontSize=19;strokeWidth=2;horizontal=0;fontFamily=Helvetica;html=1;labelBackgroundColor=none;fontColor=#FFFFFF;" parent="1" vertex="1">
          <mxGeometry x="204" y="1430.5" width="40" height="100" as="geometry" />
        </mxCell>
        <mxCell id="67" value="Lane 3" style="strokeColor=#BAC8D3;fillColor=#23445D;fontSize=24;strokeWidth=2;horizontal=0;fontFamily=Helvetica;html=1;fontColor=#FFFFFF;fontStyle=0" parent="1" vertex="1">
          <mxGeometry x="154" y="1430.5" width="50" height="200" as="geometry" />
        </mxCell>
        <mxCell id="68" value="" style="strokeColor=#FFFFFF;fillColor=#BAC8D3;fontSize=18;strokeWidth=2;fontFamily=Helvetica;html=1;opacity=60;" parent="1" vertex="1">
          <mxGeometry x="244" y="930.5" width="646.6666666666666" height="100" as="geometry" />
        </mxCell>
        <mxCell id="69" value="" style="strokeColor=#FFFFFF;fillColor=#BAC8D3;fontSize=18;strokeWidth=2;fontFamily=Helvetica;html=1;opacity=90;" parent="1" vertex="1">
          <mxGeometry x="244" y="1030.5" width="646.6666666666666" height="100" as="geometry" />
        </mxCell>
        <mxCell id="70" value="" style="strokeColor=#FFFFFF;fillColor=#BAC8D3;fontSize=18;strokeWidth=2;fontFamily=Helvetica;html=1;opacity=60;" parent="1" vertex="1">
          <mxGeometry x="244" y="1130.5" width="646.6666666666666" height="100" as="geometry" />
        </mxCell>
        <mxCell id="71" value="" style="strokeColor=#FFFFFF;fillColor=#BAC8D3;fontSize=18;strokeWidth=2;fontFamily=Helvetica;html=1;opacity=90;" parent="1" vertex="1">
          <mxGeometry x="244" y="1230.5" width="646.6666666666666" height="100" as="geometry" />
        </mxCell>
        <mxCell id="72" value="" style="strokeColor=#FFFFFF;fillColor=#BAC8D3;fontSize=18;strokeWidth=2;fontFamily=Helvetica;html=1;opacity=60;" parent="1" vertex="1">
          <mxGeometry x="244" y="1330.5" width="646.6666666666666" height="100" as="geometry" />
        </mxCell>
        <mxCell id="73" value="" style="strokeColor=#FFFFFF;fillColor=#BAC8D3;fontSize=18;strokeWidth=2;fontFamily=Helvetica;html=1;opacity=90;" parent="1" vertex="1">
          <mxGeometry x="244" y="1430.5" width="646.6666666666666" height="100" as="geometry" />
        </mxCell>
        <mxCell id="74" value="" style="strokeColor=#FFFFFF;fillColor=#BAC8D3;fontSize=18;strokeWidth=2;fontFamily=Helvetica;html=1;opacity=60;" parent="1" vertex="1">
          <mxGeometry x="244" y="1530.5" width="646.6666666666666" height="100" as="geometry" />
        </mxCell>
        <mxCell id="75" value="" style="strokeColor=#FFFFFF;fillColor=#BAC8D3;fontSize=18;strokeWidth=2;fontFamily=Helvetica;html=1;opacity=60;" parent="1" vertex="1">
          <mxGeometry x="890.6666666666666" y="930.5" width="647" height="100" as="geometry" />
        </mxCell>
        <mxCell id="76" value="" style="strokeColor=#FFFFFF;fillColor=#BAC8D3;fontSize=18;strokeWidth=2;fontFamily=Helvetica;html=1;opacity=90;" parent="1" vertex="1">
          <mxGeometry x="890.6666666666666" y="1030.5" width="646.6666666666666" height="100" as="geometry" />
        </mxCell>
        <mxCell id="77" value="" style="strokeColor=#FFFFFF;fillColor=#BAC8D3;fontSize=18;strokeWidth=2;fontFamily=Helvetica;html=1;opacity=60;" parent="1" vertex="1">
          <mxGeometry x="890.6666666666666" y="1130.5" width="646.6666666666666" height="100" as="geometry" />
        </mxCell>
        <mxCell id="78" value="" style="strokeColor=#FFFFFF;fillColor=#BAC8D3;fontSize=18;strokeWidth=2;fontFamily=Helvetica;html=1;opacity=90;" parent="1" vertex="1">
          <mxGeometry x="890.6666666666666" y="1230.5" width="646.6666666666666" height="100" as="geometry" />
        </mxCell>
        <mxCell id="79" value="" style="strokeColor=#FFFFFF;fillColor=#BAC8D3;fontSize=18;strokeWidth=2;fontFamily=Helvetica;html=1;opacity=60;" parent="1" vertex="1">
          <mxGeometry x="890.6666666666666" y="1330.5" width="646.6666666666666" height="100" as="geometry" />
        </mxCell>
        <mxCell id="80" value="" style="strokeColor=#FFFFFF;fillColor=#BAC8D3;fontSize=18;strokeWidth=2;fontFamily=Helvetica;html=1;opacity=90;" parent="1" vertex="1">
          <mxGeometry x="890.6666666666666" y="1430.5" width="646.6666666666666" height="100" as="geometry" />
        </mxCell>
        <mxCell id="81" value="" style="strokeColor=#FFFFFF;fillColor=#BAC8D3;fontSize=18;strokeWidth=2;fontFamily=Helvetica;html=1;opacity=60;fontStyle=4" parent="1" vertex="1">
          <mxGeometry x="890.6666666666666" y="1530.5" width="646.6666666666666" height="100" as="geometry" />
        </mxCell>
        <mxCell id="82" value="" style="strokeColor=#FFFFFF;fillColor=#BAC8D3;fontSize=18;strokeWidth=2;fontFamily=Helvetica;html=1;opacity=60;" parent="1" vertex="1">
          <mxGeometry x="1537.3333333333333" y="930.5" width="647" height="100" as="geometry" />
        </mxCell>
        <mxCell id="83" value="" style="strokeColor=#FFFFFF;fillColor=#BAC8D3;fontSize=18;strokeWidth=2;fontFamily=Helvetica;html=1;opacity=90;" parent="1" vertex="1">
          <mxGeometry x="1537.3333333333333" y="1030.5" width="646.6666666666666" height="100" as="geometry" />
        </mxCell>
        <mxCell id="84" value="" style="strokeColor=#FFFFFF;fillColor=#BAC8D3;fontSize=18;strokeWidth=2;fontFamily=Helvetica;html=1;opacity=60;" parent="1" vertex="1">
          <mxGeometry x="1537.3333333333333" y="1130.5" width="646.6666666666666" height="100" as="geometry" />
        </mxCell>
        <mxCell id="85" value="" style="strokeColor=#FFFFFF;fillColor=#BAC8D3;fontSize=18;strokeWidth=2;fontFamily=Helvetica;html=1;opacity=90;" parent="1" vertex="1">
          <mxGeometry x="1537.3333333333333" y="1230.5" width="646.6666666666666" height="100" as="geometry" />
        </mxCell>
        <mxCell id="86" value="" style="strokeColor=#FFFFFF;fillColor=#BAC8D3;fontSize=18;strokeWidth=2;fontFamily=Helvetica;html=1;opacity=60;" parent="1" vertex="1">
          <mxGeometry x="1537.3333333333333" y="1330.5" width="646.6666666666666" height="100" as="geometry" />
        </mxCell>
        <mxCell id="87" value="" style="strokeColor=#FFFFFF;fillColor=#BAC8D3;fontSize=18;strokeWidth=2;fontFamily=Helvetica;html=1;opacity=90;" parent="1" vertex="1">
          <mxGeometry x="1537.3333333333333" y="1430.5" width="646.6666666666666" height="100" as="geometry" />
        </mxCell>
        <mxCell id="88" value="" style="strokeColor=#FFFFFF;fillColor=#BAC8D3;fontSize=18;strokeWidth=2;fontFamily=Helvetica;html=1;opacity=60;fontStyle=4" parent="1" vertex="1">
          <mxGeometry x="1537.3333333333333" y="1530.5" width="646.6666666666666" height="100" as="geometry" />
        </mxCell>
        <mxCell id="89" style="edgeStyle=orthogonalEdgeStyle;rounded=1;jumpStyle=none;html=1;exitX=1;exitY=0.5;entryX=0;entryY=0.5;labelBackgroundColor=#ffffff;startArrow=none;startFill=0;endArrow=classic;jettySize=auto;orthogonalLoop=1;strokeColor=#0C343D;strokeWidth=3;fontFamily=Helvetica;fontSize=11;fontColor=#000000;" parent="1" source="90" target="92" edge="1">
          <mxGeometry relative="1" as="geometry">
            <Array as="points">
              <mxPoint x="422" y="980" />
              <mxPoint x="422" y="1090" />
              <mxPoint x="440" y="1090" />
              <mxPoint x="440" y="1080" />
            </Array>
          </mxGeometry>
        </mxCell>
        <mxCell id="90" value="船" style="rounded=1;fillColor=#23445D;strokeColor=none;strokeWidth=2;fontFamily=Helvetica;html=1;gradientColor=none;" parent="1" vertex="1">
          <mxGeometry x="270.3945578231293" y="955.5" width="127" height="50" as="geometry" />
        </mxCell>
        <mxCell id="91" value="中式" style="rounded=1;fillColor=#23445D;strokeColor=none;strokeWidth=2;fontFamily=Helvetica;html=1;gradientColor=none;" parent="1" vertex="1">
          <mxGeometry x="710.004761904762" y="930.5" width="127" height="50" as="geometry" />
        </mxCell>
        <mxCell id="92" value="活動租賃" style="rounded=1;fillColor=#23445D;strokeColor=none;strokeWidth=2;fontFamily=Helvetica;html=1;gradientColor=none;" parent="1" vertex="1">
          <mxGeometry x="490.0037414965986" y="1055.5" width="127" height="50" as="geometry" />
        </mxCell>
        <mxCell id="93" value="西式" style="rounded=1;fillColor=#23445D;strokeColor=none;strokeWidth=2;fontFamily=Helvetica;html=1;gradientColor=none;" parent="1" vertex="1">
          <mxGeometry x="710.004761904762" y="1055.5" width="127" height="50" as="geometry" />
        </mxCell>
        <mxCell id="94" value="" style="rounded=1;fillColor=#23445D;strokeColor=none;strokeWidth=2;fontFamily=Helvetica;html=1;gradientColor=none;" parent="1" vertex="1">
          <mxGeometry x="715.9047619047619" y="1355.5" width="127" height="50" as="geometry" />
        </mxCell>
        <mxCell id="95" value="" style="rounded=1;fillColor=#23445D;strokeColor=none;strokeWidth=2;fontFamily=Helvetica;html=1;gradientColor=none;" parent="1" vertex="1">
          <mxGeometry x="478.3537414965986" y="1455.5" width="127" height="50" as="geometry" />
        </mxCell>
        <mxCell id="96" value="" style="rounded=1;fillColor=#23445D;strokeColor=none;strokeWidth=2;fontFamily=Helvetica;html=1;gradientColor=none;" parent="1" vertex="1">
          <mxGeometry x="478.3537414965986" y="1355.5" width="127" height="50" as="geometry" />
        </mxCell>
        <mxCell id="yRl5BT_FNGJXd90gxWGe-148" value="" style="edgeStyle=orthogonalEdgeStyle;rounded=0;orthogonalLoop=1;jettySize=auto;html=1;entryX=0.5;entryY=1;entryDx=0;entryDy=0;" edge="1" parent="1" source="97" target="98">
          <mxGeometry relative="1" as="geometry" />
        </mxCell>
        <mxCell id="97" value="按人數(外)" style="rounded=1;fillColor=#23445D;strokeColor=none;strokeWidth=2;fontFamily=Helvetica;html=1;gradientColor=none;" parent="1" vertex="1">
          <mxGeometry x="1105.5049659863944" y="1050" width="127" height="50" as="geometry" />
        </mxCell>
        <mxCell id="98" value="按日期(外)" style="rounded=1;fillColor=#23445D;strokeColor=none;strokeWidth=2;fontFamily=Helvetica;html=1;gradientColor=none;" parent="1" vertex="1">
          <mxGeometry x="1105.5014285714285" y="955.5" width="127" height="50" as="geometry" />
        </mxCell>
        <mxCell id="yRl5BT_FNGJXd90gxWGe-160" value="" style="edgeStyle=orthogonalEdgeStyle;rounded=0;orthogonalLoop=1;jettySize=auto;html=1;" edge="1" parent="1" source="99" target="yRl5BT_FNGJXd90gxWGe-159">
          <mxGeometry relative="1" as="geometry" />
        </mxCell>
        <mxCell id="99" value="預訂日期" style="rounded=1;fillColor=#23445D;strokeColor=none;strokeWidth=2;gradientColor=none;fontFamily=Helvetica;html=1;" parent="1" vertex="1">
          <mxGeometry x="1979.9980952380952" y="1215" width="127" height="50" as="geometry" />
        </mxCell>
        <mxCell id="yRl5BT_FNGJXd90gxWGe-150" value="" style="edgeStyle=orthogonalEdgeStyle;rounded=0;orthogonalLoop=1;jettySize=auto;html=1;entryX=0.5;entryY=1;entryDx=0;entryDy=0;" edge="1" parent="1" source="100" target="97">
          <mxGeometry relative="1" as="geometry" />
        </mxCell>
        <mxCell id="100" value="按地點" style="rounded=1;fillColor=#23445D;strokeColor=none;strokeWidth=2;fontFamily=Helvetica;html=1;gradientColor=none;" parent="1" vertex="1">
          <mxGeometry x="1100" y="1140" width="127" height="50" as="geometry" />
        </mxCell>
        <mxCell id="101" value="" style="rounded=1;fillColor=#23445D;strokeColor=none;strokeWidth=2;fontFamily=Helvetica;html=1;gradientColor=none;" parent="1" vertex="1">
          <mxGeometry x="1161.4149659863945" y="1555.5" width="127" height="50" as="geometry" />
        </mxCell>
        <mxCell id="102" value="" style="rounded=1;fillColor=#23445D;strokeColor=none;strokeWidth=2;fontFamily=Helvetica;html=1;gradientColor=none;" parent="1" vertex="1">
          <mxGeometry x="940.2585034013605" y="1455.5" width="127" height="50" as="geometry" />
        </mxCell>
        <mxCell id="103" value="" style="rounded=1;fillColor=#23445D;strokeColor=none;strokeWidth=2;fontFamily=Helvetica;html=1;gradientColor=none;" parent="1" vertex="1">
          <mxGeometry x="1161.4149659863945" y="1455.5" width="127" height="50" as="geometry" />
        </mxCell>
        <mxCell id="104" value="滑浪" style="rounded=1;fillColor=#23445D;strokeColor=none;strokeWidth=2;fontFamily=Helvetica;html=1;gradientColor=none;" parent="1" vertex="1">
          <mxGeometry x="710.0085034013605" y="1120" width="127" height="50" as="geometry" />
        </mxCell>
        <mxCell id="105" value="" style="rounded=1;fillColor=#23445D;strokeColor=none;strokeWidth=2;fontFamily=Helvetica;html=1;gradientColor=none;" parent="1" vertex="1">
          <mxGeometry x="1500.0014285714285" y="1140" width="127" height="50" as="geometry" />
        </mxCell>
        <mxCell id="106" value="" style="rounded=1;fillColor=#23445D;strokeColor=none;strokeWidth=2;gradientColor=none;fontFamily=Helvetica;html=1;" parent="1" vertex="1">
          <mxGeometry x="1586.9251700680272" y="1355.5" width="127" height="50" as="geometry" />
        </mxCell>
        <mxCell id="107" value="" style="rounded=1;fillColor=#23445D;strokeColor=none;strokeWidth=2;gradientColor=none;fontFamily=Helvetica;html=1;" parent="1" vertex="1">
          <mxGeometry x="1808.0816326530612" y="1355.5" width="127" height="50" as="geometry" />
        </mxCell>
        <mxCell id="108" value="正常顯示" style="rounded=1;fillColor=#23445D;strokeColor=none;strokeWidth=2;gradientColor=none;fontFamily=Helvetica;html=1;" parent="1" vertex="1">
          <mxGeometry x="1573.7278911564624" y="1055.5" width="127" height="50" as="geometry" />
        </mxCell>
        <mxCell id="109" value="" style="rounded=1;fillColor=#23445D;strokeColor=none;strokeWidth=2;gradientColor=none;fontFamily=Helvetica;html=1;" parent="1" vertex="1">
          <mxGeometry x="1586.9251700680272" y="1455.5" width="127" height="50" as="geometry" />
        </mxCell>
        <mxCell id="110" value="" style="rounded=1;fillColor=#23445D;strokeColor=none;strokeWidth=2;gradientColor=none;fontFamily=Helvetica;html=1;" parent="1" vertex="1">
          <mxGeometry x="1808.0816326530612" y="1555.5" width="127" height="50" as="geometry" />
        </mxCell>
        <mxCell id="111" value="空白" style="rounded=1;fillColor=#23445D;strokeColor=none;strokeWidth=2;gradientColor=none;fontFamily=Helvetica;html=1;" parent="1" vertex="1">
          <mxGeometry x="1808.0816326530612" y="955.5" width="127" height="50" as="geometry" />
        </mxCell>
        <mxCell id="112" value="" style="edgeStyle=elbowEdgeStyle;elbow=horizontal;strokeWidth=3;strokeColor=#0C343D;fontFamily=Helvetica;html=1;" parent="1" source="90" target="96" edge="1">
          <mxGeometry x="6.448979591836746" y="830.5" width="131.97278911564624" height="100" as="geometry">
            <mxPoint x="6.448979591836746" y="930.5" as="sourcePoint" />
            <mxPoint x="138.421768707483" y="830.5" as="targetPoint" />
            <Array as="points">
              <mxPoint x="422" y="1193.5" />
            </Array>
          </mxGeometry>
        </mxCell>
        <mxCell id="113" value="" style="edgeStyle=elbowEdgeStyle;elbow=horizontal;strokeWidth=3;strokeColor=#0C343D;fontFamily=Helvetica;html=1;" parent="1" source="90" target="95" edge="1">
          <mxGeometry x="6.448979591836746" y="830.5" width="131.97278911564624" height="100" as="geometry">
            <mxPoint x="6.448979591836746" y="930.5" as="sourcePoint" />
            <mxPoint x="138.421768707483" y="830.5" as="targetPoint" />
            <Array as="points">
              <mxPoint x="422" y="1102.5" />
            </Array>
          </mxGeometry>
        </mxCell>
        <mxCell id="114" value="" style="edgeStyle=elbowEdgeStyle;elbow=horizontal;strokeWidth=3;strokeColor=#0C343D;fontFamily=Helvetica;html=1;" parent="1" source="92" target="91" edge="1">
          <mxGeometry x="6.448979591836746" y="830.5" width="131.97278911564624" height="100" as="geometry">
            <mxPoint x="6.448979591836746" y="930.5" as="sourcePoint" />
            <mxPoint x="138.421768707483" y="830.5" as="targetPoint" />
          </mxGeometry>
        </mxCell>
        <mxCell id="115" value="" style="edgeStyle=elbowEdgeStyle;elbow=horizontal;strokeWidth=3;strokeColor=#0C343D;fontFamily=Helvetica;html=1;" parent="1" source="92" target="93" edge="1">
          <mxGeometry x="6.448979591836746" y="830.5" width="131.97278911564624" height="100" as="geometry">
            <mxPoint x="6.448979591836746" y="930.5" as="sourcePoint" />
            <mxPoint x="138.421768707483" y="830.5" as="targetPoint" />
          </mxGeometry>
        </mxCell>
        <mxCell id="116" value="" style="edgeStyle=elbowEdgeStyle;elbow=horizontal;strokeWidth=3;strokeColor=#0C343D;fontFamily=Helvetica;html=1;entryX=0;entryY=0.5;entryDx=0;entryDy=0;" parent="1" source="96" target="104" edge="1">
          <mxGeometry x="6.448979591836746" y="830.5" width="131.97278911564624" height="100" as="geometry">
            <mxPoint x="6.448979591836746" y="930.5" as="sourcePoint" />
            <mxPoint x="138.421768707483" y="830.5" as="targetPoint" />
          </mxGeometry>
        </mxCell>
        <mxCell id="117" value="" style="edgeStyle=elbowEdgeStyle;elbow=horizontal;strokeWidth=3;strokeColor=#0C343D;fontFamily=Helvetica;html=1;" parent="1" source="96" target="94" edge="1">
          <mxGeometry x="6.448979591836746" y="830.5" width="131.97278911564624" height="100" as="geometry">
            <mxPoint x="6.448979591836746" y="930.5" as="sourcePoint" />
            <mxPoint x="138.421768707483" y="830.5" as="targetPoint" />
          </mxGeometry>
        </mxCell>
        <mxCell id="118" value="" style="edgeStyle=elbowEdgeStyle;elbow=horizontal;strokeWidth=3;strokeColor=#0C343D;fontFamily=Helvetica;html=1;" parent="1" source="95" target="94" edge="1">
          <mxGeometry x="6.448979591836746" y="830.5" width="131.97278911564624" height="100" as="geometry">
            <mxPoint x="6.448979591836746" y="930.5" as="sourcePoint" />
            <mxPoint x="138.421768707483" y="830.5" as="targetPoint" />
            <Array as="points">
              <mxPoint x="668.952380952381" y="1434.5" />
            </Array>
          </mxGeometry>
        </mxCell>
        <mxCell id="119" value="" style="edgeStyle=elbowEdgeStyle;elbow=horizontal;strokeWidth=3;strokeColor=#0C343D;fontFamily=Helvetica;html=1;exitX=1;exitY=0.75;exitDx=0;exitDy=0;entryX=0;entryY=0.5;entryDx=0;entryDy=0;" parent="1" target="97" edge="1">
          <mxGeometry x="6.448979591836746" y="830.5" width="131.97278911564624" height="100" as="geometry">
            <mxPoint x="831.5047619047618" y="1021.5" as="sourcePoint" />
            <mxPoint x="1100.0049659863944" y="1128.5" as="targetPoint" />
            <Array as="points">
              <mxPoint x="1020" y="1050" />
            </Array>
          </mxGeometry>
        </mxCell>
        <mxCell id="122" value="" style="edgeStyle=elbowEdgeStyle;elbow=horizontal;strokeWidth=3;strokeColor=#0C343D;fontFamily=Helvetica;html=1;" parent="1" source="91" target="97" edge="1">
          <mxGeometry x="6.448979591836746" y="830.5" width="131.97278911564624" height="100" as="geometry">
            <mxPoint x="6.448979591836746" y="930.5" as="sourcePoint" />
            <mxPoint x="138.421768707483" y="830.5" as="targetPoint" />
            <Array as="points">
              <mxPoint x="1020" y="1010" />
            </Array>
          </mxGeometry>
        </mxCell>
        <mxCell id="123" value="" style="edgeStyle=elbowEdgeStyle;elbow=horizontal;strokeWidth=3;strokeColor=#0C343D;fontFamily=Helvetica;html=1;" parent="1" source="94" target="102" edge="1">
          <mxGeometry x="6.448979591836746" y="830.5" width="131.97278911564624" height="100" as="geometry">
            <mxPoint x="6.448979591836746" y="930.5" as="sourcePoint" />
            <mxPoint x="138.421768707483" y="830.5" as="targetPoint" />
            <Array as="points">
              <mxPoint x="877.4693877551019" y="1430.5" />
            </Array>
          </mxGeometry>
        </mxCell>
        <mxCell id="124" value="" style="edgeStyle=elbowEdgeStyle;elbow=horizontal;strokeWidth=3;strokeColor=#0C343D;fontFamily=Helvetica;html=1;" parent="1" source="102" target="103" edge="1">
          <mxGeometry x="6.448979591836746" y="830.5" width="131.97278911564624" height="100" as="geometry">
            <mxPoint x="6.448979591836746" y="930.5" as="sourcePoint" />
            <mxPoint x="138.421768707483" y="830.5" as="targetPoint" />
          </mxGeometry>
        </mxCell>
        <mxCell id="125" value="" style="edgeStyle=elbowEdgeStyle;elbow=horizontal;strokeWidth=3;strokeColor=#0C343D;fontFamily=Helvetica;html=1;" parent="1" source="102" target="101" edge="1">
          <mxGeometry x="6.448979591836746" y="830.5" width="131.97278911564624" height="100" as="geometry">
            <mxPoint x="6.448979591836746" y="930.5" as="sourcePoint" />
            <mxPoint x="138.421768707483" y="830.5" as="targetPoint" />
          </mxGeometry>
        </mxCell>
        <mxCell id="126" value="" style="edgeStyle=elbowEdgeStyle;elbow=horizontal;strokeWidth=3;strokeColor=#0C343D;fontFamily=Helvetica;html=1;" parent="1" source="101" target="110" edge="1">
          <mxGeometry x="6.448979591836746" y="830.5" width="131.97278911564624" height="100" as="geometry">
            <mxPoint x="6.448979591836746" y="930.5" as="sourcePoint" />
            <mxPoint x="138.421768707483" y="830.5" as="targetPoint" />
          </mxGeometry>
        </mxCell>
        <mxCell id="127" value="" style="edgeStyle=elbowEdgeStyle;elbow=horizontal;strokeWidth=3;strokeColor=#0C343D;fontFamily=Helvetica;html=1;" parent="1" source="110" target="99" edge="1">
          <mxGeometry x="6.448979591836746" y="830.5" width="131.97278911564624" height="100" as="geometry">
            <mxPoint x="6.448979591836746" y="930.5" as="sourcePoint" />
            <mxPoint x="138.421768707483" y="830.5" as="targetPoint" />
          </mxGeometry>
        </mxCell>
        <mxCell id="128" value="" style="edgeStyle=elbowEdgeStyle;elbow=horizontal;strokeWidth=3;strokeColor=#0C343D;fontFamily=Helvetica;html=1;" parent="1" source="108" target="99" edge="1">
          <mxGeometry x="6.448979591836746" y="830.5" width="131.97278911564624" height="100" as="geometry">
            <mxPoint x="6.448979591836746" y="930.5" as="sourcePoint" />
            <mxPoint x="138.421768707483" y="830.5" as="targetPoint" />
            <Array as="points">
              <mxPoint x="1840" y="1190" />
            </Array>
          </mxGeometry>
        </mxCell>
        <mxCell id="129" value="" style="edgeStyle=elbowEdgeStyle;elbow=horizontal;strokeWidth=3;strokeColor=#0C343D;fontFamily=Helvetica;html=1;" parent="1" source="109" target="110" edge="1">
          <mxGeometry x="6.448979591836746" y="830.5" width="131.97278911564624" height="100" as="geometry">
            <mxPoint x="6.448979591836746" y="930.5" as="sourcePoint" />
            <mxPoint x="138.421768707483" y="830.5" as="targetPoint" />
          </mxGeometry>
        </mxCell>
        <mxCell id="130" value="" style="edgeStyle=elbowEdgeStyle;elbow=horizontal;strokeWidth=3;strokeColor=#0C343D;fontFamily=Helvetica;html=1;" parent="1" source="103" target="106" edge="1">
          <mxGeometry x="6.448979591836746" y="830.5" width="131.97278911564624" height="100" as="geometry">
            <mxPoint x="6.448979591836746" y="930.5" as="sourcePoint" />
            <mxPoint x="138.421768707483" y="830.5" as="targetPoint" />
          </mxGeometry>
        </mxCell>
        <mxCell id="131" value="" style="edgeStyle=elbowEdgeStyle;elbow=horizontal;strokeWidth=3;strokeColor=#0C343D;fontFamily=Helvetica;html=1;" parent="1" source="103" target="109" edge="1">
          <mxGeometry x="6.448979591836746" y="830.5" width="131.97278911564624" height="100" as="geometry">
            <mxPoint x="6.448979591836746" y="930.5" as="sourcePoint" />
            <mxPoint x="138.421768707483" y="830.5" as="targetPoint" />
          </mxGeometry>
        </mxCell>
        <mxCell id="133" value="" style="edgeStyle=elbowEdgeStyle;elbow=horizontal;strokeWidth=3;strokeColor=#0C343D;fontFamily=Helvetica;html=1;exitX=1;exitY=0.5;exitDx=0;exitDy=0;" parent="1" source="98" target="108" edge="1">
          <mxGeometry x="6.448979591836746" y="830.5" width="131.97278911564624" height="100" as="geometry">
            <mxPoint x="6.448979591836746" y="930.5" as="sourcePoint" />
            <mxPoint x="138.421768707483" y="830.5" as="targetPoint" />
          </mxGeometry>
        </mxCell>
        <mxCell id="135" value="" style="edgeStyle=elbowEdgeStyle;elbow=horizontal;strokeWidth=3;strokeColor=#0C343D;fontFamily=Helvetica;html=1;" parent="1" source="98" target="111" edge="1">
          <mxGeometry x="6.448979591836746" y="830.5" width="131.97278911564624" height="100" as="geometry">
            <mxPoint x="6.448979591836746" y="930.5" as="sourcePoint" />
            <mxPoint x="138.421768707483" y="830.5" as="targetPoint" />
          </mxGeometry>
        </mxCell>
        <mxCell id="136" value="" style="edgeStyle=elbowEdgeStyle;elbow=horizontal;strokeWidth=3;strokeColor=#0C343D;fontFamily=Helvetica;html=1;" parent="1" source="111" target="99" edge="1">
          <mxGeometry x="6.448979591836746" y="830.5" width="131.97278911564624" height="100" as="geometry">
            <mxPoint x="6.448979591836746" y="930.5" as="sourcePoint" />
            <mxPoint x="138.421768707483" y="830.5" as="targetPoint" />
          </mxGeometry>
        </mxCell>
        <mxCell id="137" value="" style="edgeStyle=elbowEdgeStyle;elbow=horizontal;strokeWidth=3;strokeColor=#0C343D;fontFamily=Helvetica;html=1;" parent="1" source="107" target="99" edge="1">
          <mxGeometry x="6.448979591836746" y="830.5" width="131.97278911564624" height="100" as="geometry">
            <mxPoint x="6.448979591836746" y="930.5" as="sourcePoint" />
            <mxPoint x="138.421768707483" y="830.5" as="targetPoint" />
          </mxGeometry>
        </mxCell>
        <mxCell id="138" value="" style="edgeStyle=elbowEdgeStyle;elbow=horizontal;strokeWidth=3;strokeColor=#0C343D;fontFamily=Helvetica;html=1;" parent="1" source="106" target="107" edge="1">
          <mxGeometry x="6.448979591836746" y="830.5" width="131.97278911564624" height="100" as="geometry">
            <mxPoint x="6.448979591836746" y="930.5" as="sourcePoint" />
            <mxPoint x="138.421768707483" y="830.5" as="targetPoint" />
          </mxGeometry>
        </mxCell>
        <mxCell id="139" value="" style="edgeStyle=elbowEdgeStyle;elbow=horizontal;strokeWidth=3;strokeColor=#0C343D;fontFamily=Helvetica;html=1;" parent="1" source="105" target="106" edge="1">
          <mxGeometry x="6.448979591836746" y="830.5" width="131.97278911564624" height="100" as="geometry">
            <mxPoint x="6.448979591836746" y="930.5" as="sourcePoint" />
            <mxPoint x="138.421768707483" y="830.5" as="targetPoint" />
            <Array as="points">
              <mxPoint x="1524.1360544217687" y="1280.5" />
            </Array>
          </mxGeometry>
        </mxCell>
        <mxCell id="140" value="" style="group" parent="1" vertex="1" connectable="0">
          <mxGeometry x="244" y="890.5" width="1256" height="40" as="geometry" />
        </mxCell>
        <mxCell id="141" value="Milestone 1" style="strokeColor=#BAC8D3;fillColor=#5d7f99;fontSize=19;strokeWidth=2;fontFamily=Helvetica;html=1;labelBackgroundColor=none;fontColor=#FFFFFF;" parent="140" vertex="1">
          <mxGeometry width="646.6656362699642" height="40" as="geometry" />
        </mxCell>
        <mxCell id="142" value="Milestone 2" style="strokeColor=#BAC8D3;fillColor=#5d7f99;fontSize=19;strokeWidth=2;fontFamily=Helvetica;html=1;labelBackgroundColor=none;fontColor=#FFFFFF;" parent="140" vertex="1">
          <mxGeometry x="646.6656362699642" width="646.6656362699642" height="40" as="geometry" />
        </mxCell>
        <mxCell id="143" value="Milestone 3" style="strokeColor=#BAC8D3;fillColor=#5d7f99;fontSize=19;strokeWidth=2;fontFamily=Helvetica;html=1;labelBackgroundColor=none;fontColor=#FFFFFF;" parent="140" vertex="1">
          <mxGeometry x="1293.3312725399282" width="646.6666666666666" height="40" as="geometry" />
        </mxCell>
        <mxCell id="yRl5BT_FNGJXd90gxWGe-157" value="上一頁" style="text;html=1;strokeColor=none;fillColor=none;align=center;verticalAlign=middle;whiteSpace=wrap;rounded=0;" vertex="1" parent="140">
          <mxGeometry x="1196" y="10" width="60" height="30" as="geometry" />
        </mxCell>
        <mxCell id="yRl5BT_FNGJXd90gxWGe-143" value="獨木" style="rounded=1;fillColor=#23445D;strokeColor=none;strokeWidth=2;fontFamily=Helvetica;html=1;gradientColor=none;" vertex="1" parent="1">
          <mxGeometry x="710.004761904762" y="990" width="127" height="50" as="geometry" />
        </mxCell>
        <mxCell id="yRl5BT_FNGJXd90gxWGe-144" value="" style="edgeStyle=elbowEdgeStyle;elbow=horizontal;strokeWidth=3;strokeColor=#0C343D;fontFamily=Helvetica;html=1;exitX=1;exitY=0.5;exitDx=0;exitDy=0;entryX=0;entryY=0.5;entryDx=0;entryDy=0;" edge="1" parent="1" source="92" target="yRl5BT_FNGJXd90gxWGe-143">
          <mxGeometry x="6.448979591836746" y="830.5" width="131.97278911564624" height="100" as="geometry">
            <mxPoint x="607" y="1091" as="sourcePoint" />
            <mxPoint x="720" y="966" as="targetPoint" />
          </mxGeometry>
        </mxCell>
        <mxCell id="yRl5BT_FNGJXd90gxWGe-145" value="" style="edgeStyle=elbowEdgeStyle;elbow=horizontal;strokeWidth=3;strokeColor=#0C343D;fontFamily=Helvetica;html=1;exitX=1;exitY=0.5;exitDx=0;exitDy=0;entryX=0;entryY=0.5;entryDx=0;entryDy=0;" edge="1" parent="1" source="92" target="104">
          <mxGeometry x="6.448979591836746" y="830.5" width="131.97278911564624" height="100" as="geometry">
            <mxPoint x="607" y="1091" as="sourcePoint" />
            <mxPoint x="720" y="1091" as="targetPoint" />
            <Array as="points">
              <mxPoint x="650" y="1110" />
            </Array>
          </mxGeometry>
        </mxCell>
        <mxCell id="yRl5BT_FNGJXd90gxWGe-146" value="" style="edgeStyle=elbowEdgeStyle;elbow=horizontal;strokeWidth=3;strokeColor=#0C343D;fontFamily=Helvetica;html=1;exitX=1;exitY=0.5;exitDx=0;exitDy=0;entryX=0;entryY=0.5;entryDx=0;entryDy=0;" edge="1" parent="1" source="93" target="97">
          <mxGeometry x="6.448979591836746" y="830.5" width="131.97278911564624" height="100" as="geometry">
            <mxPoint x="841.5047619047618" y="1031.5" as="sourcePoint" />
            <mxPoint x="1116" y="1085" as="targetPoint" />
            <Array as="points">
              <mxPoint x="1020" y="1070" />
            </Array>
          </mxGeometry>
        </mxCell>
        <mxCell id="yRl5BT_FNGJXd90gxWGe-147" value="" style="edgeStyle=elbowEdgeStyle;elbow=horizontal;strokeWidth=3;strokeColor=#0C343D;fontFamily=Helvetica;html=1;exitX=1;exitY=0.5;exitDx=0;exitDy=0;entryX=0;entryY=0.5;entryDx=0;entryDy=0;" edge="1" parent="1" source="104" target="97">
          <mxGeometry x="6.448979591836746" y="830.5" width="131.97278911564624" height="100" as="geometry">
            <mxPoint x="851.5047619047618" y="1041.5" as="sourcePoint" />
            <mxPoint x="1100" y="1080" as="targetPoint" />
            <Array as="points">
              <mxPoint x="1020" y="1110" />
            </Array>
          </mxGeometry>
        </mxCell>
        <mxCell id="yRl5BT_FNGJXd90gxWGe-149" value="switch case" style="text;html=1;strokeColor=none;fillColor=none;align=center;verticalAlign=middle;whiteSpace=wrap;rounded=0;" vertex="1" parent="1">
          <mxGeometry x="1105.5" y="1010" width="60" height="30" as="geometry" />
        </mxCell>
        <mxCell id="yRl5BT_FNGJXd90gxWGe-151" value="switch case" style="text;html=1;strokeColor=none;fillColor=none;align=center;verticalAlign=middle;whiteSpace=wrap;rounded=0;" vertex="1" parent="1">
          <mxGeometry x="1105.5" y="1100" width="60" height="30" as="geometry" />
        </mxCell>
        <mxCell id="yRl5BT_FNGJXd90gxWGe-154" value="沒有" style="text;html=1;strokeColor=none;fillColor=none;align=center;verticalAlign=middle;whiteSpace=wrap;rounded=0;" vertex="1" parent="1">
          <mxGeometry x="1380" y="940.5" width="60" height="30" as="geometry" />
        </mxCell>
        <mxCell id="yRl5BT_FNGJXd90gxWGe-155" value="有" style="text;html=1;strokeColor=none;fillColor=none;align=center;verticalAlign=middle;whiteSpace=wrap;rounded=0;" vertex="1" parent="1">
          <mxGeometry x="1360" y="1040" width="60" height="30" as="geometry" />
        </mxCell>
        <mxCell id="yRl5BT_FNGJXd90gxWGe-156" value="" style="edgeStyle=elbowEdgeStyle;elbow=horizontal;strokeWidth=3;strokeColor=#0C343D;fontFamily=Helvetica;html=1;exitX=0.5;exitY=0;exitDx=0;exitDy=0;entryX=0.5;entryY=0;entryDx=0;entryDy=0;" edge="1" parent="1" source="111" target="98">
          <mxGeometry x="6.448979591836746" y="830.5" width="131.97278911564624" height="100" as="geometry">
            <mxPoint x="1243" y="985" as="sourcePoint" />
            <mxPoint x="1818" y="991" as="targetPoint" />
            <Array as="points">
              <mxPoint x="1480" y="930" />
            </Array>
          </mxGeometry>
        </mxCell>
        <mxCell id="yRl5BT_FNGJXd90gxWGe-158" value="入到去" style="text;html=1;strokeColor=none;fillColor=none;align=center;verticalAlign=middle;whiteSpace=wrap;rounded=0;" vertex="1" parent="1">
          <mxGeometry x="1880" y="1200.5" width="60" height="30" as="geometry" />
        </mxCell>
        <mxCell id="yRl5BT_FNGJXd90gxWGe-162" value="" style="edgeStyle=orthogonalEdgeStyle;rounded=0;orthogonalLoop=1;jettySize=auto;html=1;" edge="1" parent="1" source="yRl5BT_FNGJXd90gxWGe-159" target="yRl5BT_FNGJXd90gxWGe-161">
          <mxGeometry relative="1" as="geometry" />
        </mxCell>
        <mxCell id="yRl5BT_FNGJXd90gxWGe-159" value="先選首日日期" style="rounded=1;fillColor=#23445D;strokeColor=none;strokeWidth=2;gradientColor=none;fontFamily=Helvetica;html=1;" vertex="1" parent="1">
          <mxGeometry x="2179.998095238095" y="1215" width="127" height="50" as="geometry" />
        </mxCell>
        <mxCell id="yRl5BT_FNGJXd90gxWGe-164" value="" style="edgeStyle=orthogonalEdgeStyle;rounded=0;orthogonalLoop=1;jettySize=auto;html=1;" edge="1" parent="1" source="yRl5BT_FNGJXd90gxWGe-161" target="yRl5BT_FNGJXd90gxWGe-163">
          <mxGeometry relative="1" as="geometry" />
        </mxCell>
        <mxCell id="yRl5BT_FNGJXd90gxWGe-161" value="次選首日日期" style="rounded=1;fillColor=#23445D;strokeColor=none;strokeWidth=2;gradientColor=none;fontFamily=Helvetica;html=1;" vertex="1" parent="1">
          <mxGeometry x="2179.998095238095" y="1345" width="127" height="50" as="geometry" />
        </mxCell>
        <mxCell id="yRl5BT_FNGJXd90gxWGe-168" value="" style="edgeStyle=orthogonalEdgeStyle;rounded=0;orthogonalLoop=1;jettySize=auto;html=1;" edge="1" parent="1" source="yRl5BT_FNGJXd90gxWGe-163" target="yRl5BT_FNGJXd90gxWGe-167">
          <mxGeometry relative="1" as="geometry" />
        </mxCell>
        <mxCell id="yRl5BT_FNGJXd90gxWGe-163" value="人數" style="rounded=1;fillColor=#23445D;strokeColor=none;strokeWidth=2;gradientColor=none;fontFamily=Helvetica;html=1;" vertex="1" parent="1">
          <mxGeometry x="2337.998095238095" y="1345" width="127" height="50" as="geometry" />
        </mxCell>
        <mxCell id="yRl5BT_FNGJXd90gxWGe-166" value="表格內" style="text;html=1;strokeColor=none;fillColor=none;align=center;verticalAlign=middle;whiteSpace=wrap;rounded=0;" vertex="1" parent="1">
          <mxGeometry x="2290" y="1090" width="60" height="30" as="geometry" />
        </mxCell>
        <mxCell id="yRl5BT_FNGJXd90gxWGe-170" value="" style="edgeStyle=orthogonalEdgeStyle;rounded=0;orthogonalLoop=1;jettySize=auto;html=1;" edge="1" parent="1" source="yRl5BT_FNGJXd90gxWGe-167" target="yRl5BT_FNGJXd90gxWGe-169">
          <mxGeometry relative="1" as="geometry" />
        </mxCell>
        <mxCell id="yRl5BT_FNGJXd90gxWGe-167" value="路線" style="rounded=1;fillColor=#23445D;strokeColor=none;strokeWidth=2;gradientColor=none;fontFamily=Helvetica;html=1;" vertex="1" parent="1">
          <mxGeometry x="2337.998095238095" y="1230" width="127" height="50" as="geometry" />
        </mxCell>
        <mxCell id="yRl5BT_FNGJXd90gxWGe-172" value="" style="edgeStyle=orthogonalEdgeStyle;rounded=0;orthogonalLoop=1;jettySize=auto;html=1;" edge="1" parent="1" source="yRl5BT_FNGJXd90gxWGe-169" target="yRl5BT_FNGJXd90gxWGe-171">
          <mxGeometry relative="1" as="geometry" />
        </mxCell>
        <mxCell id="yRl5BT_FNGJXd90gxWGe-174" value="" style="edgeStyle=orthogonalEdgeStyle;rounded=0;orthogonalLoop=1;jettySize=auto;html=1;" edge="1" parent="1" source="yRl5BT_FNGJXd90gxWGe-169" target="yRl5BT_FNGJXd90gxWGe-173">
          <mxGeometry relative="1" as="geometry" />
        </mxCell>
        <mxCell id="yRl5BT_FNGJXd90gxWGe-169" value="路線" style="rounded=1;fillColor=#23445D;strokeColor=none;strokeWidth=2;gradientColor=none;fontFamily=Helvetica;html=1;" vertex="1" parent="1">
          <mxGeometry x="2499.998095238095" y="1280.5" width="127" height="50" as="geometry" />
        </mxCell>
        <mxCell id="yRl5BT_FNGJXd90gxWGe-176" value="" style="edgeStyle=orthogonalEdgeStyle;rounded=0;orthogonalLoop=1;jettySize=auto;html=1;" edge="1" parent="1" source="yRl5BT_FNGJXd90gxWGe-171" target="yRl5BT_FNGJXd90gxWGe-175">
          <mxGeometry relative="1" as="geometry" />
        </mxCell>
        <mxCell id="yRl5BT_FNGJXd90gxWGe-171" value="路線(指定)" style="rounded=1;fillColor=#23445D;strokeColor=none;strokeWidth=2;gradientColor=none;fontFamily=Helvetica;html=1;" vertex="1" parent="1">
          <mxGeometry x="2649.998095238095" y="1190.5" width="127" height="50" as="geometry" />
        </mxCell>
        <mxCell id="yRl5BT_FNGJXd90gxWGe-178" value="" style="edgeStyle=orthogonalEdgeStyle;rounded=0;orthogonalLoop=1;jettySize=auto;html=1;" edge="1" parent="1" source="yRl5BT_FNGJXd90gxWGe-173" target="yRl5BT_FNGJXd90gxWGe-177">
          <mxGeometry relative="1" as="geometry" />
        </mxCell>
        <mxCell id="yRl5BT_FNGJXd90gxWGe-173" value="路線(非指定)" style="rounded=1;fillColor=#23445D;strokeColor=none;strokeWidth=2;gradientColor=none;fontFamily=Helvetica;html=1;" vertex="1" parent="1">
          <mxGeometry x="2649.998095238095" y="1345" width="127" height="50" as="geometry" />
        </mxCell>
        <mxCell id="yRl5BT_FNGJXd90gxWGe-185" value="" style="edgeStyle=orthogonalEdgeStyle;rounded=0;orthogonalLoop=1;jettySize=auto;html=1;entryX=0;entryY=0.5;entryDx=0;entryDy=0;" edge="1" parent="1" source="yRl5BT_FNGJXd90gxWGe-175" target="yRl5BT_FNGJXd90gxWGe-184">
          <mxGeometry relative="1" as="geometry" />
        </mxCell>
        <mxCell id="yRl5BT_FNGJXd90gxWGe-175" value="路線(指定)" style="rounded=1;fillColor=#23445D;strokeColor=none;strokeWidth=2;gradientColor=none;fontFamily=Helvetica;html=1;" vertex="1" parent="1">
          <mxGeometry x="2809.998095238095" y="1280" width="127" height="50" as="geometry" />
        </mxCell>
        <mxCell id="yRl5BT_FNGJXd90gxWGe-180" value="" style="edgeStyle=orthogonalEdgeStyle;rounded=0;orthogonalLoop=1;jettySize=auto;html=1;" edge="1" parent="1" source="yRl5BT_FNGJXd90gxWGe-177" target="yRl5BT_FNGJXd90gxWGe-179">
          <mxGeometry relative="1" as="geometry" />
        </mxCell>
        <mxCell id="yRl5BT_FNGJXd90gxWGe-177" value="路線(非指定)" style="rounded=1;fillColor=#23445D;strokeColor=none;strokeWidth=2;gradientColor=none;fontFamily=Helvetica;html=1;" vertex="1" parent="1">
          <mxGeometry x="2619.998095238095" y="1455.5" width="127" height="50" as="geometry" />
        </mxCell>
        <mxCell id="yRl5BT_FNGJXd90gxWGe-182" value="" style="edgeStyle=orthogonalEdgeStyle;rounded=0;orthogonalLoop=1;jettySize=auto;html=1;entryX=0;entryY=0.5;entryDx=0;entryDy=0;" edge="1" parent="1" target="yRl5BT_FNGJXd90gxWGe-181">
          <mxGeometry relative="1" as="geometry">
            <mxPoint x="2922.9980952380947" y="1430.4988235294118" as="sourcePoint" />
            <mxPoint x="3098.9980952380956" y="1480.44" as="targetPoint" />
            <Array as="points">
              <mxPoint x="2986" y="1430" />
              <mxPoint x="2986" y="1485" />
            </Array>
          </mxGeometry>
        </mxCell>
        <mxCell id="yRl5BT_FNGJXd90gxWGe-179" value="直接定時間" style="rounded=1;fillColor=#23445D;strokeColor=none;strokeWidth=2;gradientColor=none;fontFamily=Helvetica;html=1;" vertex="1" parent="1">
          <mxGeometry x="2819.998095238095" y="1410" width="127" height="50" as="geometry" />
        </mxCell>
        <mxCell id="yRl5BT_FNGJXd90gxWGe-181" value="付款" style="rounded=1;fillColor=#23445D;strokeColor=none;strokeWidth=2;gradientColor=none;fontFamily=Helvetica;html=1;" vertex="1" parent="1">
          <mxGeometry x="3119.998095238095" y="1505.5" width="127" height="50" as="geometry" />
        </mxCell>
        <mxCell id="yRl5BT_FNGJXd90gxWGe-187" value="" style="edgeStyle=orthogonalEdgeStyle;rounded=0;orthogonalLoop=1;jettySize=auto;html=1;" edge="1" parent="1" source="yRl5BT_FNGJXd90gxWGe-184" target="yRl5BT_FNGJXd90gxWGe-186">
          <mxGeometry relative="1" as="geometry" />
        </mxCell>
        <mxCell id="yRl5BT_FNGJXd90gxWGe-184" value="目的地" style="rounded=1;fillColor=#23445D;strokeColor=none;strokeWidth=2;gradientColor=none;fontFamily=Helvetica;html=1;" vertex="1" parent="1">
          <mxGeometry x="2946.998095238095" y="1150.5" width="127" height="50" as="geometry" />
        </mxCell>
        <mxCell id="yRl5BT_FNGJXd90gxWGe-189" value="" style="edgeStyle=orthogonalEdgeStyle;rounded=0;orthogonalLoop=1;jettySize=auto;html=1;" edge="1" parent="1" source="yRl5BT_FNGJXd90gxWGe-186" target="yRl5BT_FNGJXd90gxWGe-188">
          <mxGeometry relative="1" as="geometry" />
        </mxCell>
        <mxCell id="yRl5BT_FNGJXd90gxWGe-186" value="上船地點" style="rounded=1;fillColor=#23445D;strokeColor=none;strokeWidth=2;gradientColor=none;fontFamily=Helvetica;html=1;" vertex="1" parent="1">
          <mxGeometry x="3120" y="1150.5" width="130" height="50" as="geometry" />
        </mxCell>
        <mxCell id="yRl5BT_FNGJXd90gxWGe-193" value="" style="edgeStyle=orthogonalEdgeStyle;rounded=0;orthogonalLoop=1;jettySize=auto;html=1;" edge="1" parent="1" source="yRl5BT_FNGJXd90gxWGe-188" target="yRl5BT_FNGJXd90gxWGe-192">
          <mxGeometry relative="1" as="geometry" />
        </mxCell>
        <mxCell id="yRl5BT_FNGJXd90gxWGe-188" value="下船地點" style="rounded=1;fillColor=#23445D;strokeColor=none;strokeWidth=2;gradientColor=none;fontFamily=Helvetica;html=1;" vertex="1" parent="1">
          <mxGeometry x="3120" y="1215" width="130" height="50" as="geometry" />
        </mxCell>
        <mxCell id="yRl5BT_FNGJXd90gxWGe-195" value="" style="edgeStyle=orthogonalEdgeStyle;rounded=0;orthogonalLoop=1;jettySize=auto;html=1;" edge="1" parent="1" source="yRl5BT_FNGJXd90gxWGe-192" target="yRl5BT_FNGJXd90gxWGe-194">
          <mxGeometry relative="1" as="geometry" />
        </mxCell>
        <mxCell id="yRl5BT_FNGJXd90gxWGe-192" value="上船地點" style="rounded=1;fillColor=#23445D;strokeColor=none;strokeWidth=2;gradientColor=none;fontFamily=Helvetica;html=1;" vertex="1" parent="1">
          <mxGeometry x="3120" y="1295" width="130" height="50" as="geometry" />
        </mxCell>
        <mxCell id="yRl5BT_FNGJXd90gxWGe-196" value="" style="edgeStyle=orthogonalEdgeStyle;rounded=0;orthogonalLoop=1;jettySize=auto;html=1;" edge="1" parent="1" source="yRl5BT_FNGJXd90gxWGe-194" target="yRl5BT_FNGJXd90gxWGe-181">
          <mxGeometry relative="1" as="geometry" />
        </mxCell>
        <mxCell id="yRl5BT_FNGJXd90gxWGe-199" value="" style="edgeStyle=orthogonalEdgeStyle;rounded=0;orthogonalLoop=1;jettySize=auto;html=1;" edge="1" parent="1" source="yRl5BT_FNGJXd90gxWGe-194" target="yRl5BT_FNGJXd90gxWGe-198">
          <mxGeometry relative="1" as="geometry" />
        </mxCell>
        <mxCell id="yRl5BT_FNGJXd90gxWGe-194" value="下船地點" style="rounded=1;fillColor=#23445D;strokeColor=none;strokeWidth=2;gradientColor=none;fontFamily=Helvetica;html=1;" vertex="1" parent="1">
          <mxGeometry x="3120" y="1370" width="130" height="50" as="geometry" />
        </mxCell>
        <mxCell id="yRl5BT_FNGJXd90gxWGe-198" value="額外" style="rounded=1;fillColor=#23445D;strokeColor=none;strokeWidth=2;gradientColor=none;fontFamily=Helvetica;html=1;" vertex="1" parent="1">
          <mxGeometry x="3330" y="1370" width="130" height="50" as="geometry" />
        </mxCell>
      </root>
    </mxGraphModel>
  </diagram>
</mxfile>
